<mxfile host="app.diagrams.net" agent="Mozilla/5.0 (Windows NT 10.0; Win64; x64) AppleWebKit/537.36 (KHTML, like Gecko) Chrome/131.0.0.0 Safari/537.36 Edg/131.0.0.0" version="25.0.1">
  <diagram name="Trang-1" id="lBL4CgFAlvJ_EtOlmMfe">
    <mxGraphModel grid="1" page="1" gridSize="10" guides="1" tooltips="1" connect="1" arrows="1" fold="1" pageScale="1" pageWidth="827" pageHeight="1169" math="0" shadow="0">
      <root>
        <mxCell id="0" />
        <mxCell id="1" parent="0" />
        <mxCell id="Ya3VrI3K1uYkaM0h6Qyp-4" style="edgeStyle=orthogonalEdgeStyle;rounded=0;orthogonalLoop=1;jettySize=auto;html=1;entryX=0.5;entryY=0;entryDx=0;entryDy=0;" edge="1" parent="1" source="TX-vBc-TaA2zVY9mhc4l-1" target="TX-vBc-TaA2zVY9mhc4l-3">
          <mxGeometry relative="1" as="geometry" />
        </mxCell>
        <mxCell id="TX-vBc-TaA2zVY9mhc4l-1" value="start" style="ellipse;whiteSpace=wrap;html=1;" vertex="1" parent="1">
          <mxGeometry x="360" y="-10" width="120" height="80" as="geometry" />
        </mxCell>
        <mxCell id="TX-vBc-TaA2zVY9mhc4l-4" style="edgeStyle=orthogonalEdgeStyle;rounded=0;orthogonalLoop=1;jettySize=auto;html=1;entryX=0.5;entryY=0;entryDx=0;entryDy=0;" edge="1" parent="1" source="TX-vBc-TaA2zVY9mhc4l-3" target="Ya3VrI3K1uYkaM0h6Qyp-1">
          <mxGeometry relative="1" as="geometry">
            <mxPoint x="420" y="280" as="targetPoint" />
          </mxGeometry>
        </mxCell>
        <mxCell id="Ya3VrI3K1uYkaM0h6Qyp-8" style="edgeStyle=orthogonalEdgeStyle;rounded=0;orthogonalLoop=1;jettySize=auto;html=1;entryX=0.5;entryY=0;entryDx=0;entryDy=0;" edge="1" parent="1" source="TX-vBc-TaA2zVY9mhc4l-3" target="Ya3VrI3K1uYkaM0h6Qyp-5">
          <mxGeometry relative="1" as="geometry" />
        </mxCell>
        <mxCell id="TX-vBc-TaA2zVY9mhc4l-3" value="a,b,c" style="shape=parallelogram;perimeter=parallelogramPerimeter;whiteSpace=wrap;html=1;fixedSize=1;" vertex="1" parent="1">
          <mxGeometry x="330" y="100" width="180" height="80" as="geometry" />
        </mxCell>
        <mxCell id="TX-vBc-TaA2zVY9mhc4l-8" style="edgeStyle=orthogonalEdgeStyle;rounded=0;orthogonalLoop=1;jettySize=auto;html=1;" edge="1" parent="1" source="TX-vBc-TaA2zVY9mhc4l-7" target="TX-vBc-TaA2zVY9mhc4l-9">
          <mxGeometry relative="1" as="geometry">
            <mxPoint x="410" y="500" as="targetPoint" />
          </mxGeometry>
        </mxCell>
        <mxCell id="TX-vBc-TaA2zVY9mhc4l-7" value="so lon nhat la" style="shape=parallelogram;perimeter=parallelogramPerimeter;whiteSpace=wrap;html=1;fixedSize=1;" vertex="1" parent="1">
          <mxGeometry x="340" y="480" width="160" height="60" as="geometry" />
        </mxCell>
        <mxCell id="TX-vBc-TaA2zVY9mhc4l-9" value="end&lt;div&gt;&lt;br&gt;&lt;/div&gt;" style="ellipse;whiteSpace=wrap;html=1;" vertex="1" parent="1">
          <mxGeometry x="360" y="620" width="120" height="80" as="geometry" />
        </mxCell>
        <mxCell id="Ya3VrI3K1uYkaM0h6Qyp-7" style="edgeStyle=orthogonalEdgeStyle;rounded=0;orthogonalLoop=1;jettySize=auto;html=1;entryX=0;entryY=0.75;entryDx=0;entryDy=0;" edge="1" parent="1" source="Ya3VrI3K1uYkaM0h6Qyp-1" target="TX-vBc-TaA2zVY9mhc4l-7">
          <mxGeometry relative="1" as="geometry">
            <mxPoint x="90" y="510" as="targetPoint" />
            <Array as="points">
              <mxPoint x="90" y="450" />
              <mxPoint x="91" y="450" />
              <mxPoint x="91" y="520" />
              <mxPoint x="345" y="520" />
            </Array>
          </mxGeometry>
        </mxCell>
        <mxCell id="Ya3VrI3K1uYkaM0h6Qyp-9" style="edgeStyle=orthogonalEdgeStyle;rounded=0;orthogonalLoop=1;jettySize=auto;html=1;" edge="1" parent="1" source="Ya3VrI3K1uYkaM0h6Qyp-1">
          <mxGeometry relative="1" as="geometry">
            <mxPoint x="320" y="290" as="targetPoint" />
          </mxGeometry>
        </mxCell>
        <mxCell id="Ya3VrI3K1uYkaM0h6Qyp-1" value="a&amp;gt;b&amp;amp;a&amp;gt;c" style="rhombus;whiteSpace=wrap;html=1;" vertex="1" parent="1">
          <mxGeometry x="10" y="240" width="160" height="100" as="geometry" />
        </mxCell>
        <mxCell id="Ya3VrI3K1uYkaM0h6Qyp-6" style="edgeStyle=orthogonalEdgeStyle;rounded=0;orthogonalLoop=1;jettySize=auto;html=1;" edge="1" parent="1" source="Ya3VrI3K1uYkaM0h6Qyp-5" target="TX-vBc-TaA2zVY9mhc4l-7">
          <mxGeometry relative="1" as="geometry" />
        </mxCell>
        <mxCell id="Ya3VrI3K1uYkaM0h6Qyp-14" style="edgeStyle=orthogonalEdgeStyle;rounded=0;orthogonalLoop=1;jettySize=auto;html=1;entryX=0;entryY=0.5;entryDx=0;entryDy=0;" edge="1" parent="1" source="Ya3VrI3K1uYkaM0h6Qyp-5" target="Ya3VrI3K1uYkaM0h6Qyp-10">
          <mxGeometry relative="1" as="geometry" />
        </mxCell>
        <mxCell id="Ya3VrI3K1uYkaM0h6Qyp-5" value="b&amp;gt;a&amp;amp;b&amp;gt;c" style="rhombus;whiteSpace=wrap;html=1;" vertex="1" parent="1">
          <mxGeometry x="325" y="240" width="190" height="100" as="geometry" />
        </mxCell>
        <mxCell id="Ya3VrI3K1uYkaM0h6Qyp-12" style="edgeStyle=orthogonalEdgeStyle;rounded=0;orthogonalLoop=1;jettySize=auto;html=1;" edge="1" parent="1" target="TX-vBc-TaA2zVY9mhc4l-7">
          <mxGeometry relative="1" as="geometry">
            <mxPoint x="709.5" y="550" as="targetPoint" />
            <mxPoint x="709.5" y="340" as="sourcePoint" />
            <Array as="points">
              <mxPoint x="710" y="445" />
              <mxPoint x="711" y="445" />
              <mxPoint x="711" y="510" />
            </Array>
          </mxGeometry>
        </mxCell>
        <mxCell id="Ya3VrI3K1uYkaM0h6Qyp-10" value="c&amp;gt;a&amp;amp;c&amp;gt;b" style="rhombus;whiteSpace=wrap;html=1;" vertex="1" parent="1">
          <mxGeometry x="630" y="240" width="160" height="100" as="geometry" />
        </mxCell>
        <mxCell id="Ya3VrI3K1uYkaM0h6Qyp-15" value="đúng" style="text;html=1;align=center;verticalAlign=middle;resizable=0;points=[];autosize=1;strokeColor=none;fillColor=none;" vertex="1" parent="1">
          <mxGeometry x="20" y="370" width="50" height="30" as="geometry" />
        </mxCell>
        <mxCell id="Ya3VrI3K1uYkaM0h6Qyp-16" value="sai" style="text;html=1;align=center;verticalAlign=middle;resizable=0;points=[];autosize=1;strokeColor=none;fillColor=none;" vertex="1" parent="1">
          <mxGeometry x="200" y="250" width="40" height="30" as="geometry" />
        </mxCell>
        <mxCell id="Ya3VrI3K1uYkaM0h6Qyp-17" value="đúng" style="text;html=1;align=center;verticalAlign=middle;resizable=0;points=[];autosize=1;strokeColor=none;fillColor=none;" vertex="1" parent="1">
          <mxGeometry x="350" y="360" width="50" height="30" as="geometry" />
        </mxCell>
        <mxCell id="Ya3VrI3K1uYkaM0h6Qyp-18" value="đúng" style="text;html=1;align=center;verticalAlign=middle;resizable=0;points=[];autosize=1;strokeColor=none;fillColor=none;" vertex="1" parent="1">
          <mxGeometry x="650" y="370" width="50" height="30" as="geometry" />
        </mxCell>
        <mxCell id="Ya3VrI3K1uYkaM0h6Qyp-19" value="sai" style="text;html=1;align=center;verticalAlign=middle;resizable=0;points=[];autosize=1;strokeColor=none;fillColor=none;" vertex="1" parent="1">
          <mxGeometry x="560" y="250" width="40" height="30" as="geometry" />
        </mxCell>
      </root>
    </mxGraphModel>
  </diagram>
</mxfile>
